<svg xmlns="http://www.w3.org/2000/svg" height="40" viewBox="0 96 960 960" width="40"><path style="fill:#fff;" d="M280 795.999q-91.666 0-155.832-64.14-64.167-64.14-64.167-155.768 0-91.629 64.167-155.859Q188.334 356.001 280 356.001h400q91.666 0 155.832 64.14 64.167 64.14 64.167 155.768 0 91.629-64.167 155.859Q771.666 795.999 680 795.999H280Zm0-50.255h400q70.519 0 120.131-49.601 49.613-49.6 49.613-120.102 0-70.503-49.613-120.144Q750.519 406.256 680 406.256H280q-70.519 0-120.131 49.601-49.613 49.6-49.613 120.102 0 70.503 49.613 120.144Q209.481 745.744 280 745.744Zm-.465-69.078q42.029 0 71.375-29.262 29.346-29.261 29.346-71.32 0-42.058-29.262-71.404-29.261-29.346-71.29-29.346-42.028 0-71.532 29.262-29.505 29.261-29.505 71.32 0 42.058 29.42 71.404 29.42 29.346 71.448 29.346ZM480 576Z"/></svg>